# xmcd
#
# Track frame offsets: 
#        150
#        18497
#        37076
#        56776
#        74849
#        90360
#        108301
#        125464
#        140952
#        156006
#        172812
#        188707
#
# Disc length: 2721 seconds
#
# Revision: 2
# Processed by: cddbd v1.5.2PL0 Copyright (c) Steve Scherf et al.
# Submitted via: ExactAudioCopy v1.0b4
#
DISCID=a90a9f0c
DTITLE=Flávio José - Dom Cristalino
DYEAR=2008
DGENRE=Forró
TTITLE0=Pra Que Dividir
TTITLE1=Minha Mãe
TTITLE2=Fuxico
TTITLE3=Dom Cristalino
TTITLE4=Dança Da Vida
TTITLE5=Vá Embora
TTITLE6=A Poeira E O Pião
TTITLE7=Linha Cigana
TTITLE8=O Meu Direito
TTITLE9=O Rei Da Garapa
TTITLE10=A Força Da Paixão
TTITLE11=Juntando Os Troços
EXTD=
EXTT0=
EXTT1=
EXTT2=
EXTT3=
EXTT4=
EXTT5=
EXTT6=
EXTT7=
EXTT8=
EXTT9=
EXTT10=
EXTT11=
PLAYORDER=
